<?xml version="1.0" encoding="utf-8"?>
<!-- Generator: Adobe Illustrator 23.0.3, SVG Export Plug-In . SVG Version: 6.00 Build 0)  -->
<svg version="1.2" baseProfile="tiny" id="Layer_1" xmlns="http://www.w3.org/2000/svg" xmlns:xlink="http://www.w3.org/1999/xlink"
	 x="0px" y="0px" viewBox="0 0 24 24" xml:space="preserve">
<path fill="#3F01D1" d="M5,22H0V10h5V22z M22.6,13.6c-0.9-0.1-0.6-0.7,0-0.9c0.5-0.2,1.4-0.5,1.4-1.5c0-0.7-0.5-1.6-2.3-1.5
	c-1.2,0.1-3.7-0.2-5-0.9C17.7,5.1,17.4,0,15.1,0c-1.6,0-1.9,1.8-2.4,3.5c-1.2,4.2-3.3,6-5.7,6.9v10.9c4.4,0.7,6.3,2.8,10.5,2.8
	c3.2,0,4.9-1.7,4.9-2.7c0-0.3-0.3-0.6-1-0.6c-0.8-0.1-0.7-0.8,0-1c1.3-0.2,1.8-0.9,1.8-1.5c0-0.5-0.4-1-1.1-1.2
	c-0.8-0.2-0.7-0.8,0-0.8c1.1-0.1,1.7-0.8,1.7-1.4C23.9,14.2,23.5,13.7,22.6,13.6z"/>
</svg>
